<?xml version="1.0" standalone="no"?>
<!DOCTYPE svg PUBLIC "-//W3C//DTD SVG 20010904//EN"
 "http://www.w3.org/TR/2001/REC-SVG-20010904/DTD/svg10.dtd">
<svg version="1.0" xmlns="http://www.w3.org/2000/svg"
 width="512.000000pt" height="512.000000pt" viewBox="0 0 512.000000 512.000000"
 preserveAspectRatio="xMidYMid meet">
<metadata>
Created by potrace 1.14, written by Peter Selinger 2001-2017
</metadata>
<g transform="translate(0.000000,512.000000) scale(0.100000,-0.100000)"
fill="#000000" stroke="none">
<path d="M642 5103 c-52 -25 -77 -69 -77 -133 0 -65 26 -109 79 -134 31 -15
200 -16 1912 -16 1876 0 1878 0 1920 21 45 21 84 81 84 129 0 48 -39 108 -84
129 -42 21 -44 21 -1922 21 -1710 0 -1882 -2 -1912 -17z"/>
<path d="M736 4354 c-390 -392 -634 -896 -718 -1479 -20 -137 -16 -523 5 -665
86 -557 315 -1031 682 -1408 l100 -104 6 509 c5 476 7 513 27 588 104 392 419
687 798 748 41 6 74 14 74 17 0 3 -33 11 -73 17 -380 61 -695 356 -799 748
-20 75 -22 112 -27 589 l-6 509 -69 -69z"/>
<path d="M4310 3952 c0 -499 -5 -568 -51 -705 -109 -326 -384 -578 -714 -658
-44 -10 -92 -19 -107 -19 -16 0 -28 -4 -28 -10 0 -5 12 -10 28 -10 15 0 63 -9
107 -19 360 -87 640 -367 738 -736 19 -75 21 -113 26 -589 l6 -508 105 108
c492 510 754 1254 691 1964 -44 494 -216 944 -510 1333 -70 93 -212 252 -263
295 l-28 24 0 -470z"/>
</g>
</svg>
