<?xml version="1.0" standalone="no"?>
<!DOCTYPE svg PUBLIC "-//W3C//DTD SVG 20010904//EN"
 "http://www.w3.org/TR/2001/REC-SVG-20010904/DTD/svg10.dtd">
<svg version="1.0" xmlns="http://www.w3.org/2000/svg"
 width="460.000000pt" height="460.000000pt" viewBox="0 0 460.000000 460.000000"
 preserveAspectRatio="xMidYMid meet">
<metadata>
Created by potrace 1.14, written by Peter Selinger 2001-2017
</metadata>
<g transform="translate(0.000000,460.000000) scale(0.100000,-0.100000)"
fill="#000000" stroke="none">
<path d="M0 2300 l0 -2300 320 0 320 0 -3 23 c-1 12 -5 24 -8 27 -4 3 -19 54
-33 114 -21 89 -24 111 -14 124 9 11 9 14 1 9 -22 -13 -31 53 -52 373 -15 229
-14 388 5 489 9 50 20 91 25 91 5 0 8 3 8 7 -3 20 3 32 32 63 90 93 255 104
337 21 56 -57 82 -106 87 -169 3 -32 7 -70 10 -87 8 -54 19 -228 20 -297 0
-38 3 -68 6 -68 3 0 9 -32 13 -71 3 -39 17 -116 31 -172 13 -56 26 -114 29
-129 2 -14 10 -36 16 -48 7 -13 20 -43 29 -69 9 -25 38 -88 65 -138 l48 -93
1003 0 1002 0 25 38 c13 20 32 56 42 79 11 24 23 40 29 36 6 -4 8 0 4 9 -3 9
0 26 7 39 22 43 65 192 85 294 38 192 38 196 42 283 1 34 5 62 8 62 3 0 6 35
7 78 1 42 4 108 8 145 4 43 3 66 -3 63 -5 -4 -12 -2 -16 4 -3 5 -1 10 6 10 6
0 9 8 6 20 -5 19 4 25 28 20 5 -1 7 2 3 6 -4 4 -2 14 5 22 9 12 6 11 -14 -2
-26 -16 -27 -16 -25 1 0 12 -5 17 -16 15 -22 -3 -34 18 -17 30 10 6 6 7 -11 2
-14 -4 -26 -10 -28 -15 -2 -4 -11 -5 -20 -2 -13 4 -14 3 -3 -5 8 -6 9 -12 3
-16 -12 -7 -17 -1 -26 37 -4 19 -3 26 4 22 17 -11 11 17 -7 31 -17 12 -17 13
1 20 12 5 21 3 24 -4 2 -7 7 -10 11 -8 4 3 12 -4 18 -14 10 -15 9 -17 -5 -13
-12 3 -18 -2 -18 -15 0 -17 4 -18 23 -9 13 6 23 15 23 21 0 6 5 4 10 -4 7 -12
10 -8 10 15 0 27 3 30 34 31 23 1 37 -4 41 -14 5 -13 3 -13 -11 -1 -10 8 -20
12 -23 10 -13 -8 -28 -37 -33 -63 -4 -21 -2 -26 14 -23 10 2 18 0 18 -5 0 -5
6 -7 14 -4 12 5 12 8 -2 24 -8 11 -19 17 -24 14 -4 -3 -8 0 -8 5 0 6 9 11 21
11 11 0 17 -4 14 -10 -3 -5 0 -10 8 -10 8 0 26 17 40 39 57 86 186 111 299 57
135 -64 165 -196 144 -621 -5 -93 -8 -177 -8 -185 0 -14 -22 -193 -34 -275 -3
-22 -12 -51 -19 -65 -7 -14 -10 -31 -7 -39 2 -8 0 -11 -5 -8 -5 3 -8 -6 -5
-23 2 -17 -3 -48 -12 -70 -30 -75 -52 -70 304 -70 l320 0 0 2300 0 2300 -2300
0 -2300 0 0 -2300z m3660 2145 c0 -8 -4 -15 -10 -15 -5 0 -10 7 -10 15 0 8 5
15 10 15 6 0 10 -7 10 -15z m-835 -5 c3 -5 -1 -10 -9 -10 -8 0 -18 5 -21 10
-3 6 1 10 9 10 8 0 18 -4 21 -10z m-785 -54 c0 -8 -7 -16 -15 -20 -15 -5 -21
14 -8 27 11 12 23 8 23 -7z m-1210 -71 c0 -8 -7 -15 -15 -15 -16 0 -20 12 -8
23 11 12 23 8 23 -8z m620 -36 c0 -11 -11 -11 -29 0 -7 5 -10 14 -6 20 5 9 10
9 21 0 8 -6 14 -15 14 -20z m-1264 -76 c-11 -11 -19 6 -11 24 8 17 8 17 12 0
3 -10 2 -21 -1 -24z m2298 1 c8 -20 8 -24 -1 -24 -17 0 -35 19 -29 29 10 16
23 14 30 -5z m1435 -108 c8 -10 9 -16 1 -21 -13 -8 -30 3 -30 21 0 18 14 18
29 0z m-1600 -53 c-5 -29 3 -35 17 -13 8 14 13 17 10 8 -3 -10 0 -21 6 -24 8
-5 5 -10 -7 -14 -10 -4 -14 -9 -9 -13 6 -3 16 -2 24 3 12 7 12 11 -1 26 -13
16 -12 17 16 10 31 -8 47 -24 39 -38 -9 -14 -26 -8 -20 7 8 23 -7 17 -27 -10
l-17 -24 37 4 c21 2 32 1 26 -1 -10 -4 -10 -11 -2 -25 5 -11 14 -17 19 -14 4
3 11 -1 13 -7 3 -7 6 -3 6 10 1 13 5 21 11 17 5 -3 7 -13 4 -23 -5 -14 -4 -15
5 -2 6 8 11 25 11 38 0 13 4 21 9 18 5 -3 12 1 15 10 4 9 9 15 12 12 2 -3 -5
-21 -16 -41 l-21 -35 31 2 c23 1 32 7 40 30 6 16 8 32 5 34 -3 3 -5 0 -5 -6 0
-19 -17 -14 -23 7 -7 27 -57 17 -57 -11 0 -14 -5 -18 -15 -14 -10 3 -15 -1
-16 -12 0 -14 -2 -14 -9 3 -13 30 -12 35 10 35 11 0 20 5 20 11 0 6 -9 8 -21
4 -15 -5 -19 -4 -15 4 4 6 17 11 28 11 12 0 19 3 15 6 -3 3 -22 6 -41 6 -20 0
-38 4 -41 8 -10 16 111 -1 200 -27 97 -29 151 -57 203 -106 23 -22 30 -37 26
-50 -4 -12 -2 -17 4 -13 5 3 15 -1 22 -9 7 -8 21 -15 32 -15 10 0 16 -4 13
-10 -3 -6 1 -7 9 -4 13 5 16 -3 18 -37 l1 -44 4 38 4 37 50 -27 c27 -16 49
-31 49 -35 0 -5 5 -8 11 -8 18 0 70 -41 64 -51 -4 -5 0 -7 7 -4 17 7 90 -54
82 -67 -4 -7 -2 -8 4 -4 6 3 15 -2 21 -11 6 -10 11 -14 11 -8 0 5 18 -8 40
-30 21 -21 37 -42 34 -47 -3 -5 -2 -7 3 -6 4 2 20 -10 35 -25 15 -15 25 -28
23 -28 -3 -1 -9 -2 -14 -3 -5 0 -13 -4 -16 -8 -4 -4 4 -5 18 -2 22 4 32 -5 71
-60 49 -68 55 -82 30 -72 -9 3 -12 2 -9 -5 4 -6 13 -8 21 -5 9 3 17 -2 21 -12
3 -9 14 -29 24 -43 10 -14 16 -29 12 -33 -3 -3 -1 -6 6 -6 8 0 11 -6 7 -16 -3
-8 -2 -13 2 -10 10 6 45 -63 83 -167 16 -42 28 -78 28 -80 0 -1 2 -9 5 -17 19
-61 27 -123 17 -133 -8 -8 -11 -7 -12 6 -1 9 -3 22 -4 27 -1 6 -3 15 -4 20 -1
13 -28 13 -36 0 -3 -5 0 -7 8 -4 8 3 17 1 21 -4 3 -5 -5 -8 -17 -7 -17 1 -22
8 -23 31 -1 39 6 55 20 47 6 -3 5 0 -2 8 -8 9 -15 10 -20 4 -10 -15 -104 -13
-109 2 -3 9 -10 10 -22 3 -10 -5 -22 -6 -26 -2 -5 4 -5 2 -2 -5 4 -6 17 -9 30
-6 12 3 19 3 15 -2 -4 -4 -1 -13 5 -20 9 -10 16 -10 27 -1 13 9 13 9 2 -6 -9
-11 -10 -18 -2 -23 8 -5 8 -11 1 -19 -6 -7 -8 -16 -4 -19 3 -4 -1 -7 -9 -7
-19 0 -29 22 -18 40 14 23 -1 33 -21 14 -11 -9 -22 -14 -25 -11 -10 10 -45
-13 -39 -24 4 -5 12 -6 18 -2 34 21 62 -1 48 -37 -8 -20 -56 -20 -56 0 0 8 -4
15 -9 15 -11 0 -27 55 -20 67 3 4 12 8 19 8 9 0 12 6 9 18 -5 13 -4 14 4 3 6
-8 8 -19 6 -26 -3 -7 4 -11 15 -10 32 2 37 14 13 31 -29 20 -28 34 4 34 24 0
25 3 19 28 -8 35 -24 51 -18 19 4 -18 -1 -28 -15 -36 -15 -8 -23 -8 -27 0 -4
6 -14 8 -22 5 -11 -4 -13 -1 -8 14 4 14 2 20 -8 20 -9 0 -13 -9 -11 -26 2 -19
-1 -23 -10 -14 -10 7 -17 6 -25 -4 -9 -10 -8 -16 3 -25 11 -9 15 -9 19 1 2 7
8 10 12 5 5 -4 3 -13 -3 -19 -8 -8 -9 -15 -1 -25 7 -7 8 -13 4 -13 -4 0 -2 -7
5 -15 11 -13 10 -14 -4 -9 -9 3 -16 10 -16 14 0 4 -8 10 -18 12 -19 5 -26 38
-8 38 7 0 6 4 -1 11 -12 12 5 59 22 59 6 0 4 4 -4 9 -16 11 -5 34 12 24 8 -5
8 -2 0 9 -7 8 -9 19 -5 23 4 5 -1 5 -11 2 -14 -5 -16 -2 -11 19 4 13 2 24 -2
23 -20 -5 -42 14 -39 32 3 13 -5 24 -26 34 l-29 16 4 -36 c3 -25 1 -35 -7 -32
-7 2 -11 19 -10 40 2 24 -2 37 -10 37 -6 0 -3 8 8 17 15 12 16 14 3 10 -9 -3
-19 -1 -22 6 -9 23 -6 -32 4 -57 6 -18 6 -27 -3 -33 -20 -12 -41 -13 -49 0 -5
8 -12 6 -26 -6 -23 -21 -39 -22 -22 -2 15 18 13 22 -15 26 -11 2 -20 -1 -20
-6 0 -5 9 -8 20 -6 16 3 17 1 6 -13 -10 -12 -17 -13 -26 -6 -9 8 -14 7 -18 -2
-2 -8 -8 -9 -13 -4 -5 5 -3 11 5 14 11 4 11 6 0 13 -7 4 -21 3 -30 -2 -19 -10
-35 4 -24 21 3 6 1 10 -5 10 -7 0 -10 -12 -8 -27 2 -23 -1 -29 -19 -31 -26 -4
-31 13 -8 22 16 6 16 26 0 38 -9 7 25 13 48 9 4 0 7 6 7 14 0 8 5 15 10 15 6
0 10 -9 10 -20 0 -11 -5 -20 -11 -20 -5 0 -8 -4 -5 -9 8 -13 51 -8 52 7 1 6 2
17 3 22 1 7 7 6 15 -2 8 -7 12 -15 10 -17 -9 -9 42 -27 57 -20 9 5 21 3 27 -3
16 -16 15 4 0 21 -11 11 -10 12 1 6 9 -5 12 -3 9 6 -3 8 -13 16 -23 17 -10 3
-15 0 -11 -7 4 -6 2 -11 -4 -11 -6 0 -8 -5 -4 -11 13 -22 -41 14 -64 42 -19
23 -27 27 -42 19 -13 -7 -21 -7 -25 0 -4 6 -10 8 -15 5 -5 -3 -11 -1 -15 5
-10 17 -25 11 -19 -7 5 -14 4 -15 -4 -4 -11 16 -47 7 -37 -9 4 -6 10 -8 14 -6
4 3 7 -11 7 -30 -1 -36 -12 -46 -19 -16 -2 9 -3 5 -2 -10 2 -30 -2 -33 -25
-18 -10 6 -11 10 -2 10 6 0 12 7 12 15 0 19 -9 19 -32 -2 -15 -14 -22 -14 -42
-3 -23 12 -26 40 -4 40 5 0 7 -4 4 -8 -2 -4 0 -14 5 -22 8 -13 10 -13 18 -1 9
14 22 19 63 23 9 1 14 6 11 11 -3 4 -12 5 -22 2 -23 -10 -60 -13 -59 -6 2 18
-3 31 -13 31 -5 0 -8 -4 -5 -9 7 -10 -39 -21 -64 -14 -12 3 -16 11 -13 24 6
22 25 26 21 5 -2 -8 0 -15 5 -15 27 -3 37 0 32 9 -12 19 6 32 23 18 15 -11 15
-11 5 3 -10 13 -10 16 3 16 10 0 14 -7 11 -18 -7 -26 8 -41 34 -36 l24 4 -22
8 c-29 9 -30 25 -1 17 12 -3 19 -1 15 5 -4 5 6 8 24 5 30 -4 32 -3 23 21 -3 9
-13 13 -27 9 -12 -3 -19 -1 -15 3 4 4 18 9 32 10 19 2 23 -1 19 -13 -4 -10 -2
-13 5 -8 18 11 15 24 -9 36 -15 9 -24 8 -37 -2 -11 -9 -14 -10 -8 0 4 6 3 12
-2 12 -15 0 -23 28 -10 36 6 4 8 3 5 -3 -4 -6 1 -17 10 -24 15 -12 16 -12 10
3 -5 14 -1 17 18 16 13 -1 21 -6 19 -10 -3 -5 -11 -5 -17 -2 -7 4 -8 3 -4 -2
5 -5 15 -9 23 -9 7 0 14 -4 15 -10 0 -5 5 -15 10 -21 6 -8 4 -14 -8 -19 -16
-6 -15 -8 7 -20 29 -16 75 -21 50 -5 -8 5 -11 12 -6 17 4 4 12 0 17 -10 6 -9
15 -15 20 -11 6 4 6 10 -1 19 -7 9 -6 16 5 25 13 10 15 9 15 -9 0 -13 4 -19
10 -16 6 4 8 15 5 25 -5 17 -3 17 19 7 17 -8 21 -13 11 -15 -13 -3 -19 -14
-17 -33 1 -4 -7 -5 -17 -2 -25 6 -35 -11 -16 -27 8 -7 15 -8 15 -2 0 5 14 12
31 16 19 3 28 10 23 17 -4 8 -9 7 -15 -2 -7 -11 -9 -11 -9 2 0 9 7 19 15 23
22 8 18 26 -5 26 -10 0 -24 9 -30 20 -9 16 -8 20 5 20 9 0 15 6 12 13 -2 6 3
21 12 31 9 11 10 16 3 12 -8 -5 -15 1 -20 15 -5 14 -11 18 -16 11 -3 -6 -2
-14 4 -17 8 -5 7 -11 -1 -21 -10 -12 -14 -12 -20 -2 -6 9 -13 10 -24 3 -22
-13 -19 -30 5 -29 11 0 20 -3 20 -7 0 -4 3 -14 6 -23 3 -9 1 -16 -5 -16 -6 0
-10 5 -8 11 3 14 -40 22 -48 9 -4 -6 1 -7 11 -3 12 4 15 3 10 -5 -4 -7 -2 -12
3 -12 6 0 11 -5 11 -11 0 -5 -5 -7 -12 -3 -7 4 -8 3 -4 -4 5 -8 -1 -11 -18
-10 -13 1 -22 6 -20 10 3 5 11 5 17 1 16 -9 -14 30 -30 40 -7 4 -13 14 -13 22
0 9 -8 12 -25 9 -23 -4 -25 -1 -22 28 1 17 9 34 16 36 10 3 12 0 8 -12 -4 -9
-2 -16 3 -16 6 0 10 -5 10 -11 0 -5 -4 -8 -9 -4 -5 3 -12 1 -15 -3 -3 -5 9 -8
27 -8 25 1 31 -3 29 -16 -2 -10 2 -18 7 -18 13 0 5 44 -9 48 -6 2 -15 13 -21
24 -8 15 -8 19 0 14 6 -4 11 -3 11 2 0 13 -29 24 -42 15 -7 -3 -8 -1 -4 5 4 7
1 12 -8 12 -9 0 -16 4 -16 9 0 12 29 23 41 15 5 -3 9 2 9 10 0 9 -5 16 -11 16
-8 0 -7 5 1 15 7 9 10 18 7 22 -4 3 -2 12 4 19 7 8 6 14 -2 20 -8 4 -9 3 -5
-4 4 -7 2 -12 -4 -12 -7 0 -9 -8 -5 -20 5 -14 2 -20 -10 -20 -12 0 -15 -5 -9
-22 6 -21 6 -21 -10 -5 -21 21 -33 23 -16 2 10 -12 9 -15 -5 -15 -14 0 -15 -3
-5 -15 11 -13 8 -15 -14 -13 -17 2 -26 8 -26 20 0 10 -5 18 -10 18 -6 0 -8
-11 -3 -27 4 -16 7 -38 6 -50 0 -13 2 -21 6 -18 4 2 8 -3 8 -11 0 -10 -4 -11
-11 -4 -5 5 -21 10 -34 10 -13 0 -20 4 -17 10 3 6 1 10 -6 10 -8 0 -9 3 0 13
6 8 8 17 4 21 -4 4 0 4 10 0 9 -3 17 -10 17 -16 0 -5 -4 -6 -10 -3 -5 3 -10 2
-10 -3 0 -16 13 -22 26 -12 13 12 7 53 -7 44 -10 -6 -33 45 -24 54 3 3 5 0 5
-7 0 -7 5 -9 10 -6 6 4 8 10 5 15 -3 4 2 10 10 14 9 3 15 0 15 -8 0 -18 27
-40 34 -28 3 6 -1 12 -9 16 -26 9 -17 27 10 20 19 -5 25 -2 25 10 0 12 -8 15
-35 11 -32 -4 -35 -2 -35 23 -1 23 -2 25 -11 9 -10 -17 -29 -15 -29 4 0 6 4 7
10 4 6 -3 7 1 4 10 -8 20 -12 16 -23 -23 -11 -37 -4 -47 17 -26 12 13 16 13
23 2 6 -9 0 -15 -18 -20 -29 -8 -45 5 -36 29 3 7 0 13 -6 13 -6 0 -11 -5 -11
-12 0 -9 -3 -9 -11 -1 -15 15 -1 53 19 53 13 0 14 -2 3 -9 -9 -6 -10 -11 -2
-15 6 -4 13 4 17 19 3 13 11 22 16 19 6 -4 8 -1 6 7 -3 8 -12 14 -19 13 -18
-1 -20 34 -2 40 7 3 10 -1 7 -8 -3 -8 1 -17 8 -22 7 -4 10 -4 6 1 -4 4 -3 14
4 22 13 16 9 22 -18 24 -37 4 -64 -1 -64 -12 0 -5 4 -7 10 -4 7 4 7 -3 0 -20
-13 -34 -13 -35 5 -29 8 4 15 1 15 -6 0 -6 -4 -8 -10 -5 -5 3 -10 2 -10 -2 0
-12 -46 -11 -57 1 -5 5 -1 7 9 3 10 -3 20 -2 23 3 4 6 -3 10 -14 10 -28 0 -68
39 -51 50 19 11 4 40 -20 40 -11 0 -20 -5 -20 -11 0 -5 4 -8 8 -5 4 2 8 -4 9
-14 1 -16 -3 -14 -28 9 -32 31 -46 70 -26 72 47 6 127 -16 127 -34 0 -5 -5 -5
-12 -1 -7 4 -8 3 -4 -4 4 -7 3 -12 -2 -12 -5 0 -12 -14 -14 -31 -4 -22 0 -33
14 -40 20 -11 22 -6 8 21 -9 16 -7 18 12 15 21 -4 21 -3 6 9 -19 14 -13 30 6
19 17 -11 36 -12 36 -2 0 5 3 8 8 8 22 -4 32 3 32 23 0 20 -13 18 -16 -3 -1
-5 -2 -12 -3 -15 0 -3 -8 2 -17 11 -15 14 -17 14 -30 -2 -12 -17 -13 -16 -14
10 0 16 -4 26 -9 23 -5 -3 -14 1 -21 10 -7 8 -19 13 -26 10 -7 -3 -16 0 -20 7
-4 7 -4 9 1 5 9 -9 35 9 35 24 0 6 -7 5 -15 -2 -8 -7 -21 -10 -29 -7 -10 4
-13 1 -10 -7 7 -19 -47 -28 -66 -11 -8 7 -23 11 -32 10 -10 -2 -20 1 -23 5 -3
5 4 7 15 5 11 -2 20 0 20 6 0 5 -6 9 -14 9 -7 0 -19 7 -26 15 -10 12 -16 13
-28 3 -13 -10 -14 -10 -8 0 4 7 2 12 -4 12 -6 0 -8 5 -4 12 5 8 2 9 -9 5 -9
-3 -19 -1 -23 5 -4 6 -3 8 2 5 6 -3 15 3 22 14 10 16 9 19 -3 19 -8 0 -15 -6
-15 -12 0 -10 -3 -9 -9 1 -5 7 -15 10 -22 7 -8 -4 -6 -1 4 7 23 19 22 33 -3
33 -11 0 -20 -6 -20 -14 0 -7 -4 -11 -10 -7 -5 3 -7 12 -3 20 3 10 0 14 -8 12
-8 -2 -11 -2 -7 0 4 3 2 15 -4 27 -7 16 -16 22 -29 19 -22 -6 -26 16 -7 35 13
13 29 16 27 5z m2201 -53 c0 -5 -7 -10 -15 -10 -8 0 -15 5 -15 10 0 6 7 10 15
10 8 0 15 -4 15 -10z m-3392 -39 c3 -8 -1 -12 -9 -9 -7 2 -15 10 -17 17 -3 8
1 12 9 9 7 -2 15 -10 17 -17z m2280 -9 c3 -9 -2 -13 -14 -10 -9 1 -19 9 -22
16 -3 9 2 13 14 10 9 -1 19 -9 22 -16z m-878 -172 c0 -5 -4 -10 -10 -10 -5 0
-10 5 -10 10 0 6 5 10 10 10 6 0 10 -4 10 -10z m-1760 -166 c0 -8 -6 -14 -14
-14 -12 0 -14 10 -7 38 3 10 21 -11 21 -24z m3156 -21 c-11 -11 -19 6 -11 24
8 17 8 17 12 0 3 -10 2 -21 -1 -24z m-3643 -107 c3 -8 -1 -17 -9 -20 -9 -4
-14 1 -14 14 0 23 15 27 23 6z m2631 -61 c3 -8 0 -14 -7 -12 -7 1 -11 -3 -10
-9 1 -7 -6 -10 -17 -7 -11 3 -20 12 -20 20 0 8 4 12 8 9 4 -2 14 -1 22 5 19
11 17 12 24 -6z m-104 -76 c0 -5 -7 -5 -17 -2 -10 4 -14 2 -10 -4 4 -6 1 -14
-5 -16 -10 -4 -10 -8 1 -15 9 -6 10 -12 3 -16 -13 -8 -5 -36 10 -36 6 0 8 7 5
15 -4 8 -2 17 3 20 5 3 8 11 6 18 -1 7 -1 9 1 5 10 -17 23 -7 20 15 -1 16 3
21 16 19 10 -2 25 2 33 9 8 6 17 10 20 7 2 -3 -6 -12 -20 -21 -13 -9 -36 -27
-50 -40 l-25 -23 33 0 c29 1 33 4 25 19 -6 9 -7 17 -5 17 3 0 10 -9 16 -20 8
-16 7 -25 -6 -43 -12 -16 -15 -17 -10 -4 4 14 1 17 -20 14 -14 -2 -29 -10 -34
-18 -8 -12 -12 -11 -25 6 -8 11 -15 16 -14 10 3 -19 -1 -26 -10 -20 -6 3 -4
24 5 53 9 26 16 52 16 58 1 13 38 6 38 -7z m228 -182 c-7 -14 -13 -17 -16 -9
-6 19 6 44 18 37 7 -4 6 -14 -2 -28z m-64 11 c-7 -11 -34 -10 -34 1 0 6 9 9
19 8 11 0 17 -5 15 -9z m-199 -19 c-3 -4 -12 -6 -20 -3 -8 4 -13 10 -10 15 3
4 12 6 20 3 8 -4 13 -10 10 -15z m480 -55 c1 -16 8 -28 14 -26 6 1 10 -4 9
-10 -2 -7 3 -12 10 -10 7 1 12 -8 11 -20 l0 -23 -16 23 c-22 31 -30 27 -25
-13 4 -34 15 -45 26 -26 3 5 16 11 28 14 21 5 21 5 6 -7 -14 -10 -15 -15 -5
-25 9 -10 8 -11 -7 -5 -15 6 -17 4 -11 -14 4 -14 2 -22 -5 -22 -6 0 -8 -4 -5
-10 3 -5 1 -10 -4 -10 -6 0 -11 -5 -11 -11 0 -5 5 -7 12 -3 7 5 8 3 3 -5 -4
-7 -11 -9 -16 -4 -10 10 0 53 13 53 5 0 6 5 2 11 -4 8 -9 7 -15 -2 -5 -9 -10
0 -15 29 -3 23 -11 39 -15 36 -5 -3 -8 0 -7 8 2 7 -4 13 -13 12 -9 -1 -16 5
-16 12 0 7 4 11 9 8 4 -3 8 0 8 6 0 6 5 8 10 5 6 -4 8 -10 5 -15 -3 -5 -1 -11
4 -14 5 -4 8 16 6 45 -4 53 4 63 10 13z m-255 -9 c-11 -13 -8 -15 16 -16 16
-1 40 -2 54 -3 14 -1 32 3 40 9 13 9 13 8 0 -9 -14 -18 -13 -19 2 -13 10 3 20
2 23 -3 4 -6 12 -10 18 -9 9 0 9 2 0 6 -7 2 -13 9 -13 14 0 5 6 8 13 7 6 -2
11 2 10 7 -1 6 7 11 17 12 13 1 17 -3 13 -13 -3 -7 -9 -11 -14 -8 -5 3 -9 -1
-10 -8 0 -7 -2 -23 -5 -35 -2 -13 1 -23 6 -23 6 0 9 3 9 8 -4 25 4 28 24 9 27
-28 32 -40 17 -45 -6 -2 -9 2 -8 8 2 7 -3 14 -10 16 -7 1 -8 0 -3 -2 5 -3 7
-13 4 -23 -3 -10 0 -22 6 -25 6 -4 11 -2 11 3 0 6 6 11 14 11 19 0 30 -31 15
-41 -13 -8 -59 17 -59 33 0 5 -9 18 -20 30 -11 12 -20 28 -20 35 0 15 -2 15
-24 7 -9 -3 -13 -10 -10 -15 3 -5 9 -7 13 -5 4 3 12 -4 19 -15 7 -11 8 -19 2
-19 -5 0 -10 4 -10 9 0 5 -8 12 -19 16 -11 3 -21 19 -25 37 l-6 31 -20 -23
c-18 -21 -20 -21 -20 -4 0 16 -2 17 -10 4 -6 -10 -10 -11 -10 -3 0 7 -11 15
-25 19 -28 7 -31 14 -13 32 17 17 23 15 8 -3z m1362 -27 c-9 -9 -12 -7 -12 12
0 19 3 21 12 12 9 -9 9 -15 0 -24z m-3692 -12 c0 -8 -4 -18 -10 -21 -5 -3 -10
3 -10 14 0 12 5 21 10 21 6 0 10 -6 10 -14z m2735 -126 c3 -6 -4 -10 -17 -10
-18 0 -20 2 -8 10 19 12 18 12 25 0z m-31 -35 c-4 -8 -11 -15 -16 -15 -6 0 -5
6 2 15 7 8 14 15 16 15 2 0 1 -7 -2 -15z m169 -17 c5 -18 8 -20 22 -8 14 12
16 12 15 -1 -6 -36 1 -56 18 -56 45 0 47 -3 21 -27 -20 -18 -26 -33 -24 -55 1
-17 -1 -31 -6 -31 -5 0 -6 -7 -3 -15 4 -8 1 -15 -6 -15 -6 0 -9 4 -5 9 9 16
-12 22 -39 11 -16 -6 -27 -6 -31 1 -4 5 -10 7 -15 4 -4 -3 -7 6 -6 19 2 14 -1
30 -6 38 -7 10 -8 8 -4 -4 7 -23 -17 -24 -35 -1 -12 14 -12 16 1 11 8 -2 21 3
30 12 11 13 22 15 40 10 24 -7 25 -7 4 -16 -16 -7 -19 -14 -14 -29 7 -18 9
-17 26 12 11 18 22 33 26 33 4 0 3 11 -3 24 -7 14 -17 22 -25 19 -8 -3 -14 -2
-14 1 0 4 10 11 23 16 17 7 18 9 5 9 -13 1 -17 8 -16 26 3 31 14 32 21 3z
m107 -104 c11 -12 11 -15 0 -12 -8 2 -15 -6 -17 -17 l-3 -20 9 20 c5 11 10 16
11 10 0 -5 8 -1 16 10 10 12 14 14 12 5 -3 -8 -1 -25 3 -38 8 -20 7 -21 -11
-12 -16 9 -20 8 -20 -5 0 -9 4 -14 8 -11 4 2 14 0 22 -5 11 -7 2 -9 -28 -5
-40 5 -43 4 -37 -14 4 -12 2 -20 -5 -20 -6 0 -8 -4 -5 -10 3 -5 1 -10 -4 -10
-13 0 -15 17 -3 24 5 3 8 15 7 28 -1 13 3 26 9 30 8 5 7 11 -1 19 -10 10 -9
16 5 30 9 10 18 18 18 18 1 1 7 -6 14 -15z m270 -10 c0 -16 -16 -19 -25 -4 -8
13 4 32 16 25 5 -4 9 -13 9 -21z m-347 -116 c-2 -5 1 -8 6 -8 6 0 11 -8 11
-17 0 -13 5 -11 18 9 11 19 22 26 34 22 10 -3 18 -1 18 5 0 5 -8 12 -17 14
-14 4 -13 5 4 6 18 1 22 -4 21 -23 -2 -17 -7 -22 -20 -18 -12 3 -18 -1 -18
-13 0 -12 5 -15 16 -11 16 6 48 -12 51 -29 1 -6 -16 -11 -37 -11 -22 0 -37 3
-35 7 3 4 -3 13 -12 20 -15 12 -16 12 -10 -3 4 -12 2 -18 -8 -18 -9 0 -12 6
-8 17 5 12 3 14 -7 8 -9 -5 -11 -4 -6 4 4 6 1 14 -8 17 -8 3 -12 12 -9 19 3
10 -1 13 -16 10 -11 -2 -24 1 -27 7 -5 7 0 9 14 6 12 -4 22 -2 22 3 0 6 6 4
14 -3 8 -7 12 -16 9 -20z m123 -141 c2 -36 0 -47 -12 -47 -8 0 -12 5 -9 10 4
6 1 18 -7 27 -11 14 -11 16 1 8 11 -6 13 -4 8 9 -4 10 -7 21 -7 25 0 4 -7 8
-15 8 -9 0 -14 -6 -11 -14 3 -7 -1 -13 -10 -13 -8 0 -12 5 -9 10 3 6 -2 10
-12 10 -15 0 -16 2 -3 10 8 6 30 9 49 7 34 -3 35 -4 37 -50z m-3464 18 c0 -5
-5 -11 -11 -13 -6 -2 -11 4 -11 13 0 9 5 15 11 13 6 -2 11 -8 11 -13z m3468
-97 c0 -12 -1 -19 -3 -17 -1 2 -9 12 -16 22 -12 14 -11 17 3 17 10 0 16 -8 16
-22z m656 -15 c-7 -7 -26 7 -26 19 0 6 6 6 15 -2 9 -7 13 -15 11 -17z m-4235
-786 c-13 -13 -26 -3 -16 12 3 6 11 8 17 5 6 -4 6 -10 -1 -17z m4404 -67 c-5
-8 -11 -8 -17 -2 -6 6 -7 16 -3 22 5 8 11 8 17 2 6 -6 7 -16 3 -22z m-3445
-232 c0 6 22 10 55 9 30 -1 55 -5 55 -9 0 -5 -7 -8 -16 -8 -14 0 -14 -3 -4
-15 7 -8 9 -15 4 -15 -5 0 -2 -4 6 -10 22 -13 42 7 30 30 -13 24 -13 30 1 30
5 0 8 -4 4 -9 -3 -5 -1 -12 4 -15 5 -4 8 -20 7 -36 -2 -33 -16 -54 -16 -25 0
26 -12 11 -15 -20 -2 -14 1 -25 6 -25 6 0 8 -4 5 -9 -3 -5 1 -14 9 -21 15 -13
20 -5 16 28 -1 6 5 12 14 12 9 0 15 -9 15 -21 0 -16 4 -19 23 -14 12 4 27 12
32 17 6 6 4 7 -8 2 -13 -5 -16 -2 -10 12 4 12 3 15 -6 10 -8 -5 -20 0 -32 13
-19 20 -19 21 -1 21 10 0 23 -5 30 -12 9 -9 12 -9 12 0 0 17 56 15 74 -4 12
-11 13 -20 6 -33 -6 -12 -6 -21 1 -28 5 -5 7 -17 3 -27 -5 -14 -9 -14 -23 -4
-14 12 -14 11 -3 -4 8 -10 20 -14 29 -11 10 4 14 2 9 -5 -3 -6 -1 -14 5 -18 7
-4 9 -3 6 2 -11 18 7 31 33 23 24 -7 24 -7 3 -8 -24 -1 -31 -15 -13 -26 6 -3
10 -2 10 4 0 6 7 7 17 4 10 -4 14 -2 10 4 -7 12 16 36 26 27 3 -3 8 4 12 16 4
14 12 19 22 16 8 -3 19 -6 24 -6 6 0 7 -5 4 -10 -4 -6 -11 -8 -17 -4 -5 3 -2
-9 8 -27 13 -27 14 -31 2 -22 -12 10 -15 10 -15 -2 0 -8 4 -15 9 -15 5 0 6 -5
3 -11 -4 -6 2 -5 13 2 23 14 24 28 4 44 -11 9 -11 13 2 24 9 8 16 20 16 28 0
13 3 13 15 3 12 -10 19 -10 27 -2 16 16 25 15 25 -1 0 -9 -11 -13 -28 -12 -16
1 -30 -4 -33 -12 -6 -15 15 -18 30 -4 11 10 74 2 74 -10 0 -13 -18 -20 -25 -9
-3 5 -12 10 -18 10 -8 0 -7 -4 2 -9 10 -6 3 -8 -21 -6 -24 2 -35 -1 -35 -10 0
-7 6 -11 14 -8 7 3 13 -2 13 -12 0 -10 -5 -13 -12 -9 -7 4 -8 3 -4 -5 9 -14
26 -5 26 15 0 8 5 14 11 14 5 0 7 -5 3 -11 -4 -7 2 -6 17 2 21 10 22 10 12 -2
-9 -12 -6 -14 20 -14 21 0 31 -4 29 -13 -1 -8 2 -11 8 -7 6 3 8 11 5 16 -4 5
-1 9 5 9 6 0 9 4 6 9 -3 4 -17 7 -31 6 -26 -3 -36 19 -12 28 9 4 9 8 -2 15 -7
5 -10 15 -6 22 6 9 3 9 -14 1 -25 -14 -28 -4 -3 16 9 8 12 12 5 9 -6 -3 -22
-2 -34 3 -17 6 -27 4 -34 -6 -9 -12 -13 -10 -23 12 -7 15 -8 24 -2 20 5 -3 10
-2 10 4 0 14 -18 23 -24 12 -3 -5 -7 -20 -8 -33 -2 -27 -35 -36 -45 -12 -7 20
-23 7 -23 -19 0 -12 -4 -17 -8 -12 -4 6 -16 11 -27 13 -20 3 -20 3 -1 -11 13
-10 15 -16 8 -21 -7 -4 -12 -2 -12 3 0 6 -7 11 -15 11 -8 0 -15 8 -16 18 0 13
-2 12 -9 -5 -5 -13 -14 -23 -20 -23 -7 0 -8 6 -1 18 7 13 6 23 -2 32 -9 10 -9
11 1 6 7 -4 12 -2 12 5 0 7 8 5 20 -6 18 -16 30 -8 13 9 -11 11 -13 40 -2 52
7 8 6 14 -1 19 -5 3 -10 0 -10 -7 0 -11 -22 -14 -72 -9 -5 1 -8 6 -8 12 0 8 4
8 14 0 11 -9 16 -9 22 0 5 8 3 9 -5 5 -8 -5 -14 0 -18 13 -4 18 -11 21 -34 17
-16 -2 -29 0 -29 5 0 6 -5 7 -12 3 -6 -4 -8 -3 -4 4 3 6 26 10 50 9 37 -2 42
-5 39 -22 -2 -11 -1 -14 3 -7 3 6 10 12 15 12 6 0 8 -4 4 -9 -3 -5 -1 -12 4
-15 14 -9 24 13 12 28 -8 9 -1 13 32 14 32 2 38 0 25 -8 -9 -5 -15 -18 -13
-28 2 -9 4 -20 4 -23 1 -3 7 -6 15 -6 11 0 12 6 5 24 -5 14 -5 23 1 23 6 0 10
-7 10 -15 0 -8 7 -15 16 -15 9 0 12 5 8 13 -5 9 -4 9 6 0 12 -11 15 -28 19
-93 1 -11 4 -11 13 -2 10 10 10 14 0 21 -9 5 -6 11 12 19 19 8 27 8 36 -3 6
-8 9 -19 5 -25 -9 -14 8 -13 24 3 11 10 12 9 6 -2 -6 -11 -4 -13 9 -8 9 4 33
-2 54 -13 20 -11 31 -20 24 -20 -7 0 -10 -5 -6 -11 4 -7 9 -8 17 0 15 15 57
-33 50 -58 -4 -17 -1 -19 28 -16 18 3 37 13 43 22 9 16 11 16 17 -7 7 -24 7
-24 8 -2 1 20 4 21 21 12 11 -6 20 -7 20 -3 0 4 4 1 10 -7 6 -9 5 -17 -3 -22
-9 -6 -9 -8 0 -8 7 0 17 8 22 18 6 10 11 12 11 4 0 -7 5 -10 10 -7 6 3 10 0
10 -7 0 -9 3 -9 10 2 8 12 10 12 10 1 0 -8 7 -11 20 -8 11 3 18 2 16 -1 -2 -4
21 -8 52 -9 32 -1 59 -7 63 -15 7 -10 9 -10 9 0 0 18 51 15 67 -5 8 -10 12
-12 8 -5 -5 9 2 12 22 11 36 -2 231 10 258 15 11 2 33 7 49 12 21 5 27 4 22
-4 -5 -8 -2 -10 8 -6 9 3 16 10 16 14 0 4 12 5 28 3 20 -3 23 -2 12 6 -11 7
-7 10 18 9 28 -1 71 -28 45 -28 -5 0 -10 -7 -10 -15 0 -10 4 -12 12 -5 7 5 15
7 18 3 4 -3 7 -1 7 5 0 6 -4 14 -10 17 -15 9 -12 25 5 25 8 0 15 4 15 9 0 13
61 40 77 34 16 -6 10 -15 -12 -20 -8 -2 -22 -4 -30 -6 -8 -2 -18 -7 -22 -12
-4 -4 -3 -5 4 -2 6 4 13 2 15 -4 2 -7 17 -13 33 -15 22 -2 26 -1 15 6 -13 9
-13 11 0 19 8 5 18 7 22 5 4 -3 8 1 8 8 0 10 2 10 9 -1 6 -10 10 -10 16 -1 4
6 4 14 0 18 -7 7 -12 8 -42 11 -26 2 64 43 102 47 11 1 26 2 34 3 7 0 11 7 7
16 -3 9 0 15 10 15 8 0 12 -4 9 -10 -3 -5 -1 -10 4 -10 6 0 11 4 11 9 0 6 9 9
20 8 24 -2 24 -1 3 -23 -10 -10 -19 -21 -19 -26 -1 -4 -2 -11 -3 -15 0 -3 -9
2 -20 11 -17 16 -19 16 -24 -4 -3 -13 0 -23 9 -27 8 -3 14 -10 14 -15 0 -6 -7
-8 -15 -5 -8 4 -17 2 -20 -4 -4 -5 -11 -7 -16 -4 -5 4 -9 1 -9 -5 0 -6 -4 -9
-9 -5 -6 3 -15 -3 -20 -14 -14 -25 -14 -31 0 -31 5 0 8 3 5 8 -2 4 12 18 31
31 25 16 34 19 30 8 -3 -9 1 -17 14 -20 10 -3 17 -1 13 4 -8 13 10 11 25 -3
11 -11 12 -10 6 1 -6 11 -4 13 8 8 9 -3 19 -2 22 3 4 6 -9 10 -27 10 -42 0
-46 26 -8 57 19 16 27 18 27 8 0 -8 -5 -11 -10 -8 -6 3 -7 1 -3 -5 4 -7 1 -12
-8 -12 -16 0 -23 -19 -8 -21 4 0 15 -2 26 -4 12 -2 15 0 9 6 -15 15 8 61 27
54 8 -4 22 4 32 17 13 17 18 19 18 8 0 -9 -6 -22 -12 -29 -8 -8 -8 -11 -2 -8
7 4 17 0 24 -8 7 -8 16 -12 21 -9 5 3 9 1 9 -5 0 -5 -6 -12 -12 -15 -9 -4 -8
-5 2 -5 37 3 49 -2 44 -15 -3 -8 -1 -16 4 -20 5 -3 8 8 7 24 -2 26 0 28 17 16
11 -8 29 -12 41 -9 18 4 19 3 7 -6 -13 -9 -12 -11 4 -11 13 0 17 -5 13 -20 -3
-11 0 -23 6 -27 7 -3 9 -3 5 2 -4 4 -3 14 3 21 8 10 7 18 -5 29 -9 9 -16 20
-16 25 0 5 -6 7 -13 4 -8 -3 -13 3 -13 16 0 11 4 20 8 20 4 0 8 -4 8 -10 0 -5
5 -10 11 -10 5 0 7 5 4 10 -3 6 1 10 9 10 8 0 18 -5 21 -10 3 -5 0 -10 -7 -10
-8 0 -9 -3 -3 -8 6 -4 11 -15 12 -24 0 -10 1 -27 2 -39 0 -11 6 -17 12 -14 5
4 9 19 7 33 -2 16 2 27 10 28 6 1 21 2 33 3 11 0 17 5 14 11 -3 5 -1 19 6 31
9 17 13 19 20 8 4 -8 3 -19 -3 -26 -15 -19 -2 -29 17 -13 9 8 14 22 12 32 -8
30 9 29 32 -3 13 -18 27 -27 34 -22 9 5 9 3 0 -9 -7 -8 -11 -17 -8 -19 2 -3
-5 -10 -15 -17 -11 -7 -20 -8 -20 -4 0 13 -59 7 -73 -8 -10 -10 -9 -12 4 -7 9
3 22 0 29 -6 10 -9 11 -9 6 0 -3 6 -2 14 4 18 9 6 15 -8 11 -29 -1 -5 5 -4 13
3 8 7 20 10 25 7 14 -9 -8 -56 -26 -56 -7 0 -13 -5 -13 -11 0 -5 6 -7 13 -3
22 13 -67 -81 -101 -106 -18 -14 -46 -37 -62 -52 -27 -25 -36 -30 -56 -27 -4
0 -10 -4 -14 -11 -4 -6 -14 -12 -22 -13 -8 -2 -27 -13 -42 -25 -16 -12 -32
-19 -37 -16 -5 3 -9 1 -9 -5 0 -10 -38 -27 -52 -23 -5 1 -8 -2 -8 -8 0 -5 -4
-10 -10 -10 -5 0 -33 -11 -62 -24 -71 -33 -175 -67 -210 -69 -15 -1 -28 -5
-28 -8 0 -6 -120 -31 -243 -49 -39 -6 -157 -9 -270 -6 -211 4 -332 22 -517 76
-89 26 -254 95 -292 121 -14 11 -33 19 -41 19 -8 0 -26 9 -40 20 -14 11 -29
20 -35 20 -17 0 -138 98 -182 147 -51 58 -81 104 -74 115 3 4 1 8 -3 8 -5 0
-14 9 -21 21 -8 12 -9 18 -3 14 6 -3 11 1 11 9 0 9 -4 16 -10 16 -5 0 -9 3 -9
8 1 4 0 9 -1 12 -7 18 -5 52 3 57 6 3 7 1 3 -5 -3 -6 -1 -14 5 -18 8 -4 7 -9
-2 -15 -11 -6 -9 -9 7 -9 17 0 20 5 16 31 -3 22 -1 30 7 25 6 -4 9 -11 6 -16
-3 -5 -1 -18 5 -29 7 -15 7 -20 -4 -23 -12 -2 -11 -7 4 -26 25 -30 31 -16 15
33 -10 26 -11 43 -4 51 7 8 7 14 0 18 -6 4 -8 12 -5 19 2 7 -5 12 -20 12 -17
0 -22 -3 -15 -12 7 -7 7 -13 0 -17 -5 -3 -15 10 -21 30 -10 29 -10 38 1 45 8
4 19 3 26 -3 9 -7 13 -7 13 0z m193 0 c2 -7 -2 -21 -11 -30 -14 -16 -13 -18 2
-18 9 0 15 4 12 9 -12 19 24 19 46 1 l23 -19 -23 -1 c-13 0 -20 4 -17 10 3 6
2 10 -4 10 -5 0 -13 -5 -16 -11 -14 -21 -38 -4 -41 29 -2 32 19 47 29 20z
m1917 2 c0 -5 9 -10 20 -10 11 0 20 -6 20 -14 0 -22 40 -66 61 -66 21 0 27 34
7 46 -7 5 -8 2 -3 -7 6 -10 5 -11 -3 -4 -6 6 -9 20 -6 32 7 24 44 39 44 17 0
-8 -6 -11 -15 -8 -8 4 -15 1 -15 -5 0 -6 12 -11 26 -11 22 0 24 3 19 23 -5 17
-4 19 4 7 6 -8 11 -10 11 -4 0 6 7 11 15 11 8 0 12 -4 9 -8 -2 -4 2 -10 8 -13
7 -3 3 -3 -9 0 -17 4 -23 1 -23 -11 0 -12 5 -15 21 -10 16 5 19 4 14 -5 -5 -8
-20 -10 -41 -7 -27 5 -31 3 -22 -7 7 -7 21 -11 32 -8 18 5 18 4 5 -10 -9 -11
-19 -13 -31 -7 -12 7 -18 4 -23 -10 -6 -20 -20 -22 -45 -6 -13 8 -13 7 -1 -8
10 -13 10 -17 1 -17 -8 0 -10 -9 -6 -26 6 -24 5 -26 -15 -21 -12 3 -30 2 -40
-4 -14 -7 -19 -5 -24 11 -4 11 -10 18 -15 15 -5 -3 -12 4 -15 16 -5 13 -2 25
6 30 20 12 32 -1 17 -19 -7 -10 -8 -14 -4 -10 5 4 16 2 24 -5 11 -8 14 -8 9 0
-4 6 -3 14 3 18 5 3 10 -1 10 -11 0 -13 3 -14 14 -5 13 11 29 51 20 51 -3 0
-15 -7 -28 -16 -16 -10 -26 -12 -31 -5 -8 14 4 33 16 26 18 -12 29 5 18 28
-14 30 -51 47 -67 31 -7 -7 -12 -19 -11 -26 0 -10 2 -10 6 0 6 15 33 16 33 1
0 -5 -5 -7 -12 -3 -7 5 -8 3 -3 -6 6 -10 11 -9 22 5 12 17 13 17 13 2 0 -17
-7 -20 -42 -20 -10 0 -15 -3 -13 -8 3 -4 1 -10 -5 -14 -5 -3 -10 -1 -10 5 0 5
-13 9 -30 8 -16 -1 -30 -6 -30 -12 0 -5 -9 -1 -20 9 -21 19 -17 40 6 31 8 -3
14 -1 14 4 0 6 5 9 12 8 7 -2 12 3 13 10 0 21 20 14 27 -10 3 -13 6 -17 7 -9
2 28 51 67 51 41z m85 0 c3 -5 -3 -10 -15 -10 -12 0 -18 5 -15 10 3 6 10 10
15 10 5 0 12 -4 15 -10z m229 -6 c3 -8 2 -12 -4 -9 -6 3 -10 10 -10 16 0 14 7
11 14 -7z m-2481 -41 c-3 -7 0 -13 6 -13 6 0 11 -4 11 -10 0 -5 -4 -10 -10
-10 -11 0 -29 61 -22 74 7 13 20 -26 15 -41z m327 17 c0 -5 -5 -10 -11 -10 -5
0 -7 5 -4 10 3 6 8 10 11 10 2 0 4 -4 4 -10z m1915 0 c3 -5 1 -10 -4 -10 -6 0
-11 5 -11 10 0 6 2 10 4 10 3 0 8 -4 11 -10z m147 -35 c0 -5 -5 -11 -11 -13
-6 -2 -11 4 -11 13 0 9 5 15 11 13 6 -2 11 -8 11 -13z m-1988 -20 c3 -8 3 -15
0 -15 -3 0 -12 7 -20 15 -13 13 -13 15 -1 15 8 0 17 -7 21 -15z m1690 -14
c-10 -10 -23 -16 -28 -13 -5 3 2 11 15 18 33 18 36 17 13 -5z m413 -33 c1 -10
-3 -18 -9 -18 -6 0 -8 3 -5 6 3 4 -5 15 -18 26 -14 11 -23 24 -19 29 8 13 50
-21 51 -43z m-187 36 c0 -12 -43 -44 -51 -38 -5 3 -7 10 -3 15 3 5 10 7 15 4
5 -4 12 1 15 9 6 15 24 23 24 10z m60 -6 c0 -4 -5 -8 -12 -8 -6 0 -8 -3 -4 -7
4 -5 14 1 22 11 12 18 14 18 14 3 0 -10 -7 -20 -16 -24 -9 -3 -12 -8 -5 -12 6
-4 7 -12 1 -21 -7 -10 -10 -11 -10 -2 0 6 -5 12 -11 12 -5 0 -8 -4 -5 -8 2 -4
-4 -13 -14 -20 -16 -10 -18 -9 -14 2 3 8 1 24 -6 35 -9 17 -8 21 5 21 9 0 13
-4 10 -10 -3 -5 1 -10 10 -10 11 0 14 6 10 23 -5 17 -2 24 9 24 9 0 16 -4 16
-9z m-1568 -84 c15 -5 15 -7 0 -25 -21 -25 -32 -24 -32 2 0 12 -8 28 -17 35
-16 12 -15 13 7 4 14 -6 32 -13 42 -16z m908 -18 c0 -2 -7 -6 -15 -10 -8 -3
-15 -1 -15 4 0 6 7 10 15 10 8 0 15 -2 15 -4z m800 -10 c0 -11 -19 -15 -25 -6
-3 5 1 10 9 10 9 0 16 -2 16 -4z"/>
<path d="M2560 3940 c0 -5 5 -10 11 -10 5 0 7 5 4 10 -3 6 -8 10 -11 10 -2 0
-4 -4 -4 -10z"/>
<path d="M2546 3904 c-3 -9 -3 -20 0 -26 4 -6 -1 -6 -14 1 -11 6 -23 16 -26
23 -3 7 -3 2 0 -11 4 -16 3 -21 -5 -17 -6 4 -11 14 -11 22 0 11 -6 14 -22 9
-34 -11 -38 -18 -22 -39 14 -19 14 -19 14 1 0 12 5 25 12 29 6 4 8 3 5 -3 -4
-6 0 -14 9 -17 8 -3 12 -10 9 -16 -4 -6 -12 -8 -18 -5 -7 3 -3 0 7 -7 11 -7
28 -21 38 -30 20 -19 33 -24 23 -8 -3 5 3 18 15 30 11 11 16 20 10 20 -5 0
-10 4 -10 9 0 14 38 1 44 -15 3 -9 -4 -16 -19 -20 -24 -6 -29 -23 -10 -36 16
-12 25 -9 18 7 -4 13 0 15 21 11 15 -3 24 -1 21 5 -6 9 9 13 30 10 6 -1 2 6
-8 16 -15 16 -19 16 -27 3 -8 -13 -10 -12 -10 3 0 9 -11 23 -25 29 -27 12 -35
31 -10 22 8 -4 15 -2 15 3 0 16 -48 13 -54 -3z m-3 -59 c-9 -7 -23 -11 -30 -8
-21 8 4 32 28 26 18 -5 18 -6 2 -18z"/>
<path d="M2708 3830 c12 -5 22 -15 22 -21 0 -7 3 -9 6 -6 10 10 -16 37 -35 36
-11 0 -9 -3 7 -9z"/>
<path d="M2664 3798 c-8 -13 5 -27 25 -25 11 1 17 7 14 17 -5 17 -30 23 -39 8z"/>
<path d="M2800 3791 c0 -6 4 -13 10 -16 6 -3 7 1 4 9 -7 18 -14 21 -14 7z"/>
<path d="M2726 3782 c2 -3 -1 -11 -7 -19 -8 -9 -8 -13 -1 -13 16 0 26 20 15
30 -6 4 -8 5 -7 2z"/>
<path d="M2565 3740 c-3 -6 1 -7 9 -4 18 7 21 14 7 14 -6 0 -13 -4 -16 -10z"/>
<path d="M2621 3729 c12 -10 27 -19 33 -18 7 0 7 2 -1 5 -7 3 -10 11 -7 17 2
7 -6 13 -21 13 l-26 2 22 -19z"/>
<path d="M2832 3709 c-18 -29 -11 -30 15 -2 12 13 17 23 10 23 -7 0 -18 -9
-25 -21z"/>
<path d="M2880 3710 c-8 -5 -10 -10 -5 -10 6 0 17 5 25 10 8 5 11 10 5 10 -5
0 -17 -5 -25 -10z"/>
<path d="M2840 3666 c0 -8 7 -17 16 -20 13 -5 14 -4 6 7 -7 8 -9 17 -5 20 3 4
1 7 -5 7 -7 0 -12 -6 -12 -14z"/>
<path d="M2815 3641 c3 -5 1 -11 -4 -13 -4 -1 -6 -11 -2 -20 5 -15 8 -14 17 7
9 19 9 25 -3 29 -8 3 -12 2 -8 -3z"/>
<path d="M3094 3638 c-4 -7 -3 -8 5 -4 6 4 20 2 29 -6 15 -12 16 -11 3 5 -16
20 -27 22 -37 5z"/>
<path d="M2945 3630 c-3 -6 1 -7 9 -4 18 7 21 14 7 14 -6 0 -13 -4 -16 -10z"/>
<path d="M2975 3609 c-4 -6 -5 -12 -2 -15 2 -3 7 2 10 11 7 17 1 20 -8 4z"/>
<path d="M2875 3590 c3 -5 0 -10 -8 -10 -18 0 -30 -27 -16 -36 18 -11 39 4 32
23 -6 16 -5 16 10 4 9 -7 14 -18 10 -24 -4 -6 -1 -7 6 -2 9 5 7 13 -10 31 -23
25 -35 32 -24 14z"/>
<path d="M3167 3589 c7 -7 15 -10 18 -7 3 3 -2 9 -12 12 -14 6 -15 5 -6 -5z"/>
<path d="M3003 3542 c-8 -14 -8 -19 1 -19 7 0 13 9 13 19 1 10 1 18 0 18 -1 0
-7 -8 -14 -18z"/>
<path d="M3076 3507 c3 -10 9 -15 12 -12 3 3 0 11 -7 18 -10 9 -11 8 -5 -6z"/>
<path d="M2970 3461 c0 -12 27 -40 40 -41 3 0 6 9 6 19 0 14 -4 17 -12 10 -9
-7 -16 -5 -23 8 -7 12 -10 13 -11 4z"/>
<path d="M3133 3418 c-2 -18 0 -20 7 -8 12 18 13 30 2 30 -4 0 -9 -10 -9 -22z"/>
<path d="M3027 3400 c-24 -19 -26 -19 -29 -3 -3 15 -5 14 -10 -4 -7 -26 13
-32 34 -9 11 11 15 11 25 -3 12 -14 12 -14 6 3 -4 12 -3 17 4 13 6 -4 13 0 17
8 8 21 -17 19 -47 -5z"/>
<path d="M3191 3394 c0 -11 3 -14 6 -6 3 7 2 16 -1 19 -3 4 -6 -2 -5 -13z"/>
<path d="M3220 3376 c0 -2 8 -10 18 -17 15 -13 16 -12 3 4 -13 16 -21 21 -21
13z"/>
<path d="M3170 3346 c0 -2 7 -7 16 -10 8 -3 12 -2 9 4 -6 10 -25 14 -25 6z"/>
<path d="M3121 3312 c-1 -36 22 -42 26 -6 3 18 2 18 -6 -1 -8 -18 -9 -17 -13
10 l-5 30 -2 -33z"/>
<path d="M3205 3300 c-4 -6 -16 -8 -28 -4 -12 3 -19 3 -15 -1 12 -13 59 -15
51 -2 -4 7 0 8 11 4 10 -4 15 -3 11 3 -8 13 -22 13 -30 0z"/>
<path d="M3399 3293 c-13 -16 -12 -17 4 -4 9 7 17 15 17 17 0 8 -8 3 -21 -13z"/>
<path d="M3250 3279 c0 -5 5 -7 10 -4 6 3 10 1 10 -4 0 -6 5 -11 11 -11 8 0 8
5 -1 15 -14 17 -30 20 -30 4z"/>
<path d="M3154 3265 c2 -7 -1 -18 -7 -24 -8 -8 -8 -11 2 -11 7 0 9 -5 5 -12
-4 -7 -3 -8 4 -4 7 4 12 17 13 29 0 22 0 22 10 -1 5 -14 13 -20 21 -16 8 5 9
2 5 -9 -4 -11 -2 -14 9 -10 9 3 14 -2 14 -15 0 -11 -6 -23 -12 -25 -8 -3 -6
-6 5 -6 21 -1 24 41 4 61 -8 7 -12 18 -10 23 2 6 -13 15 -33 21 -27 9 -34 9
-30 -1z"/>
<path d="M3255 3212 c-4 -10 0 -12 11 -8 8 3 18 6 20 6 2 0 4 4 4 8 0 15 -29
9 -35 -6z"/>
<path d="M3401 3194 c0 -11 3 -14 6 -6 3 7 2 16 -1 19 -3 4 -6 -2 -5 -13z"/>
<path d="M3124 3188 c-4 -7 -4 -10 1 -6 4 4 16 3 26 -3 15 -7 17 -6 13 6 -7
18 -30 20 -40 3z"/>
<path d="M3326 3192 c-3 -5 1 -9 9 -9 8 0 15 4 15 9 0 4 -4 8 -9 8 -6 0 -12
-4 -15 -8z"/>
<path d="M3087 3183 c-3 -5 1 -14 9 -20 8 -8 15 -9 19 -3 3 6 1 10 -5 10 -6 0
-8 5 -5 10 3 6 2 10 -4 10 -5 0 -12 -3 -14 -7z"/>
<path d="M3266 3175 c-3 -10 0 -12 11 -8 12 5 14 1 8 -18 -5 -16 -4 -21 3 -14
18 18 18 48 0 50 -9 2 -19 -3 -22 -10z"/>
<path d="M3380 3147 c0 -7 -9 -18 -20 -25 -17 -10 -20 -10 -20 3 0 8 -6 12
-12 10 -17 -7 -39 -53 -28 -60 11 -7 101 66 94 76 -8 13 -14 11 -14 -4z"/>
<path d="M3480 3150 c-9 -6 -10 -10 -3 -10 6 0 15 5 18 10 8 12 4 12 -15 0z"/>
<path d="M3410 3136 c0 -2 7 -7 16 -10 8 -3 12 -2 9 4 -6 10 -25 14 -25 6z"/>
<path d="M3426 3088 c3 -4 11 -5 19 -1 21 7 19 12 -4 10 -11 0 -18 -5 -15 -9z"/>
<path d="M3388 3065 c19 -27 28 -30 37 -15 3 6 1 10 -4 10 -6 0 -11 6 -11 13
0 7 -9 13 -20 14 -19 2 -19 1 -2 -22z"/>
<path d="M3340 3055 c-11 -13 -10 -14 3 -9 23 8 41 -4 27 -21 -8 -9 -4 -11 16
-7 14 2 22 7 17 11 -5 3 -12 14 -16 24 -8 21 -30 22 -47 2z"/>
<path d="M3517 3039 c7 -7 15 -10 18 -7 3 3 -2 9 -12 12 -14 6 -15 5 -6 -5z"/>
<path d="M3430 3021 c0 -25 6 -27 13 -6 4 8 2 17 -3 20 -6 4 -10 -3 -10 -14z"/>
<path d="M3455 3010 c-3 -5 1 -13 10 -16 22 -9 29 1 11 15 -10 8 -16 9 -21 1z"/>
<path d="M3520 3011 c0 -6 4 -13 10 -16 6 -3 7 1 4 9 -7 18 -14 21 -14 7z"/>
<path d="M3370 3000 c-13 -8 -12 -11 5 -24 26 -19 63 -3 44 20 -6 8 -14 14
-16 14 -3 0 0 -7 7 -15 8 -10 9 -15 2 -15 -6 0 -15 7 -19 15 -6 9 -13 11 -23
5z"/>
<path d="M3594 2985 c3 -21 16 -31 16 -12 0 9 -4 18 -9 21 -5 4 -8 -1 -7 -9z"/>
<path d="M3558 2973 c7 -3 16 -2 19 1 4 3 -2 6 -13 5 -11 0 -14 -3 -6 -6z"/>
<path d="M3426 2955 c-3 -8 -1 -15 4 -15 6 0 10 7 10 15 0 8 -2 15 -4 15 -2 0
-6 -7 -10 -15z"/>
<path d="M3487 2947 c-8 -20 15 -38 41 -34 12 2 23 5 24 8 2 2 1 3 -1 1 -2 -1
-13 5 -23 15 -10 9 -18 12 -18 7 0 -5 -4 -3 -9 4 -7 11 -9 11 -14 -1z"/>
<path d="M3315 2870 c-3 -5 -1 -10 4 -10 6 0 11 5 11 10 0 6 -2 10 -4 10 -3 0
-8 -4 -11 -10z"/>
<path d="M3614 2871 c4 -5 1 -12 -4 -14 -6 -3 -5 -4 2 -3 15 3 23 26 8 26 -6
0 -9 -4 -6 -9z"/>
<path d="M3486 2833 c-6 -14 -5 -15 5 -6 7 7 10 15 7 18 -3 3 -9 -2 -12 -12z"/>
<path d="M3424 2788 c-3 -4 2 -8 10 -8 8 0 17 4 20 8 3 5 -2 9 -10 9 -8 0 -17
-4 -20 -9z"/>
<path d="M3558 2825 c-11 -11 4 -45 19 -45 11 0 13 4 6 13 -6 6 -12 18 -14 25
-3 7 -7 10 -11 7z"/>
<path d="M3576 2758 c5 -7 2 -9 -9 -5 -10 4 -21 -3 -31 -19 -9 -13 -12 -24 -6
-24 5 0 10 4 10 10 0 5 7 7 16 3 21 -8 -1 -23 -34 -23 -13 0 -21 -4 -17 -10 4
-6 15 -6 31 0 14 6 30 8 34 5 5 -3 7 4 5 15 -2 11 -1 20 3 20 4 0 8 9 9 20 1
11 -3 20 -8 20 -6 0 -7 -5 -3 -12z"/>
<path d="M3610 2614 c0 -17 27 -37 42 -31 8 4 7 6 -4 6 -9 1 -22 9 -27 19 -6
9 -11 12 -11 6z"/>
<path d="M1091 1311 c-8 -5 -20 -7 -27 -4 -6 2 -15 0 -19 -6 -3 -6 -3 -11 2
-12 4 0 16 -2 26 -4 9 -2 17 1 17 6 0 4 6 6 14 3 17 -7 26 -60 13 -73 -7 -7
-6 -15 1 -24 7 -8 9 -16 6 -20 -3 -3 3 -3 15 0 12 3 21 10 21 15 0 5 -4 6 -10
3 -5 -3 -10 1 -10 10 0 10 -5 13 -12 9 -7 -4 -8 -3 -4 4 5 9 14 7 32 -4 29
-19 28 -18 8 -50 -14 -20 -19 -22 -33 -12 -14 12 -14 11 -2 -4 7 -10 17 -15
22 -12 5 3 9 0 9 -5 0 -6 -7 -11 -15 -11 -18 0 -19 -12 -3 -28 19 -19 30 -14
23 11 l-6 22 20 -24 c12 -13 21 -19 21 -13 0 5 -7 15 -15 22 -8 7 -15 24 -15
39 l1 26 15 -28 c14 -26 34 -29 34 -6 0 6 -4 7 -10 4 -5 -3 -10 1 -10 9 0 9
-4 16 -9 16 -4 0 -7 11 -6 25 2 14 -2 25 -8 25 -8 0 -7 4 1 12 15 15 15 28 1
28 -5 0 -8 -4 -5 -9 3 -5 -1 -11 -9 -15 -16 -6 -24 3 -30 34 -2 11 0 18 6 15
5 -4 9 1 9 10 0 11 -5 15 -14 12 -7 -3 -18 -1 -22 3 -5 5 -15 5 -23 1z"/>
<path d="M1445 1249 c-7 -11 4 -31 14 -25 4 3 13 0 21 -6 12 -8 12 -9 -2 -4
-11 3 -18 0 -18 -8 0 -35 34 -26 55 15 14 25 13 28 -3 27 -9 0 -27 3 -39 5
-13 3 -25 2 -28 -4z"/>
<path d="M1311 1224 c0 -11 3 -14 6 -6 3 7 2 16 -1 19 -3 4 -6 -2 -5 -13z"/>
<path d="M1334 1214 c-4 -17 -2 -29 7 -35 10 -6 6 -9 -13 -9 -16 0 -28 -6 -28
-12 0 -9 -4 -8 -10 2 -7 10 -10 11 -10 2 0 -7 6 -15 14 -18 8 -3 12 -13 8 -26
-4 -18 -2 -19 19 -13 21 7 22 6 10 -9 -8 -9 -9 -16 -3 -16 6 0 13 6 15 13 4 9
8 9 15 -1 7 -11 10 -11 15 2 4 9 3 15 -1 14 -22 -4 -58 15 -58 32 0 10 3 18 6
18 35 -3 52 4 46 18 -4 9 -2 22 4 29 9 11 6 12 -12 9 -13 -2 -17 -2 -10 2 14
7 16 24 2 24 -5 0 -13 -12 -16 -26z"/>
<path d="M2943 1174 c4 -7 0 -14 -8 -18 -8 -3 -15 -2 -15 3 0 4 -7 8 -16 8
-14 0 -14 -2 2 -14 11 -8 18 -19 16 -24 -1 -6 5 -6 17 0 19 11 22 34 6 48 -4
4 -5 3 -2 -3z"/>
<path d="M1238 1158 c-8 -19 -1 -28 23 -28 13 0 16 5 12 16 -4 12 -8 13 -13 3
-6 -8 -9 -6 -12 7 -3 17 -4 17 -10 2z"/>
<path d="M3090 1145 c7 -19 6 -33 -6 -53 -15 -25 -15 -25 0 -8 12 15 16 16 16
5 1 -10 4 -9 11 4 6 10 7 26 3 35 -4 9 -6 23 -5 30 1 6 -5 12 -13 12 -12 0
-14 -5 -6 -25z"/>
<path d="M3135 1140 c-3 -5 -1 -10 4 -10 6 0 11 5 11 10 0 6 -2 10 -4 10 -3 0
-8 -4 -11 -10z"/>
<path d="M1502 1110 c-12 -10 -19 -21 -15 -23 5 -3 16 6 26 19 21 29 19 30
-11 4z"/>
<path d="M1714 1121 c-10 -11 -2 -20 16 -18 11 1 20 5 20 9 0 4 7 4 17 1 11
-4 14 -3 9 5 -6 11 -52 13 -62 3z"/>
<path d="M1220 1109 c0 -5 5 -7 10 -4 6 3 10 8 10 11 0 2 -4 4 -10 4 -5 0 -10
-5 -10 -11z"/>
<path d="M1255 1110 c3 -5 -6 -12 -20 -16 -20 -5 -23 -9 -14 -20 6 -8 17 -14
23 -14 6 0 4 5 -4 10 -13 9 -13 10 0 10 8 0 21 9 28 20 10 17 10 20 -4 20 -8
0 -12 -4 -9 -10z"/>
<path d="M3141 1103 c0 -11 3 -13 6 -5 2 6 9 12 14 12 6 0 7 -5 3 -12 -4 -7
-3 -8 5 -4 14 9 5 26 -15 26 -8 0 -14 -8 -13 -17z"/>
<path d="M1092 1098 c6 -18 25 -21 25 -3 0 8 -7 15 -14 15 -8 0 -13 -5 -11
-12z"/>
<path d="M2856 1094 c-3 -7 5 -11 18 -11 13 0 23 5 23 11 0 6 -8 12 -18 12
-10 0 -21 -6 -23 -12z"/>
<path d="M3370 1088 c0 -17 2 -18 15 -4 8 8 15 16 15 19 0 2 -7 4 -15 4 -8 0
-15 -9 -15 -19z"/>
<path d="M1895 1091 c3 -6 -3 -14 -12 -20 -10 -6 -13 -11 -7 -11 12 0 34 20
34 32 0 4 -5 8 -11 8 -5 0 -8 -4 -4 -9z"/>
<path d="M3246 1091 c-2 -3 2 -11 9 -18 10 -10 14 -9 19 3 3 9 6 17 6 18 0 5
-31 2 -34 -3z"/>
<path d="M3121 1074 c0 -11 3 -14 6 -6 3 7 2 16 -1 19 -3 4 -6 -2 -5 -13z"/>
<path d="M1430 1070 c0 -5 5 -10 11 -10 5 0 7 5 4 10 -3 6 -8 10 -11 10 -2 0
-4 -4 -4 -10z"/>
<path d="M2672 1073 c1 -4 -3 -17 -9 -29 -10 -17 -9 -21 3 -21 8 0 13 6 10 12
-2 7 0 17 6 23 6 6 6 12 -1 17 -6 3 -10 3 -9 -2z"/>
<path d="M1188 1063 c7 -3 16 -2 19 1 4 3 -2 6 -13 5 -11 0 -14 -3 -6 -6z"/>
<path d="M1570 1059 c0 -5 5 -7 10 -4 6 3 10 8 10 11 0 2 -4 4 -10 4 -5 0 -10
-5 -10 -11z"/>
<path d="M1750 1055 c0 -9 5 -15 11 -13 6 2 11 8 11 13 0 5 -5 11 -11 13 -6 2
-11 -4 -11 -13z"/>
<path d="M2559 1068 c-5 -18 -6 -38 -1 -34 7 8 12 36 6 36 -2 0 -4 -1 -5 -2z"/>
<path d="M2808 1063 c7 -3 16 -2 19 1 4 3 -2 6 -13 5 -11 0 -14 -3 -6 -6z"/>
<path d="M3390 1060 c0 -5 7 -7 15 -4 8 4 15 8 15 10 0 2 -7 4 -15 4 -8 0 -15
-4 -15 -10z"/>
<path d="M1636 1047 c3 -10 9 -15 12 -12 3 3 0 11 -7 18 -10 9 -11 8 -5 -6z"/>
<path d="M2930 1045 c-11 -13 -10 -14 4 -9 9 3 16 10 16 15 0 13 -6 11 -20 -6z"/>
<path d="M3054 1039 c-19 -22 -19 -22 4 -8 12 8 22 17 22 21 0 12 -6 9 -26
-13z"/>
<path d="M3227 1043 c3 -7 6 -13 8 -13 2 0 5 6 8 13 3 8 -1 14 -8 14 -7 0 -11
-6 -8 -14z"/>
<path d="M1580 1020 c-6 -11 -8 -20 -6 -20 3 0 10 9 16 20 6 11 8 20 6 20 -3
0 -10 -9 -16 -20z"/>
<path d="M1816 1032 c-2 -4 2 -16 10 -26 10 -15 16 -16 27 -8 8 7 17 9 21 5 4
-4 4 1 0 11 -5 13 -9 14 -14 5 -5 -6 -15 -9 -25 -6 -9 4 -13 11 -10 17 3 5 4
10 1 10 -3 0 -7 -3 -10 -8z"/>
<path d="M1990 1036 c0 -2 8 -10 18 -17 15 -13 16 -12 3 4 -13 16 -21 21 -21
13z"/>
<path d="M2367 1026 c-4 -10 -1 -13 8 -9 8 3 12 9 9 14 -7 12 -11 11 -17 -5z"/>
<path d="M3129 1023 c-13 -16 -12 -17 4 -4 9 7 17 15 17 17 0 8 -8 3 -21 -13z"/>
<path d="M1915 1021 c-3 -5 -2 -12 3 -15 5 -3 9 1 9 9 0 17 -3 19 -12 6z"/>
<path d="M2777 1023 c-10 -9 -9 -23 1 -23 5 0 9 7 9 15 0 17 -1 18 -10 8z"/>
<path d="M1406 1008 c3 -4 9 -8 15 -8 5 0 9 4 9 8 0 5 -7 9 -15 9 -8 0 -12 -4
-9 -9z"/>
<path d="M2280 1016 c0 -2 7 -7 16 -10 8 -3 12 -2 9 4 -6 10 -25 14 -25 6z"/>
<path d="M2454 1005 c-3 -8 -10 -13 -14 -10 -4 3 -14 -3 -21 -13 -13 -15 -12
-16 4 -3 9 7 17 10 17 5 0 -5 7 -1 14 9 13 16 15 16 30 2 9 -9 16 -12 16 -6 0
6 -9 15 -20 21 -16 9 -22 8 -26 -5z"/>
<path d="M2520 1005 c-11 -13 -10 -14 4 -9 9 3 16 10 16 15 0 13 -6 11 -20 -6z"/>
<path d="M2610 1016 c0 -2 7 -7 16 -10 8 -3 12 -2 9 4 -6 10 -25 14 -25 6z"/>
<path d="M2835 1010 c-16 -7 -17 -9 -3 -9 9 -1 20 4 23 9 7 11 7 11 -20 0z"/>
<path d="M3066 1012 c-3 -4 4 -9 15 -9 23 -2 25 3 4 10 -8 4 -16 3 -19 -1z"/>
<path d="M3146 998 c3 -4 11 -5 19 -1 21 7 19 12 -4 10 -11 0 -18 -5 -15 -9z"/>
<path d="M2915 990 c3 -5 8 -10 11 -10 2 0 4 5 4 10 0 6 -5 10 -11 10 -5 0 -7
-4 -4 -10z"/>
<path d="M1208 983 c6 -2 9 -10 6 -15 -4 -7 -2 -8 5 -4 13 9 5 26 -12 25 -9 0
-8 -2 1 -6z"/>
<path d="M2543 984 c4 -4 1 -14 -6 -23 -11 -14 -10 -15 8 -1 11 8 21 15 23 16
2 1 -5 5 -15 8 -9 4 -14 4 -10 0z"/>
<path d="M2766 977 c3 -10 9 -15 12 -12 3 3 0 11 -7 18 -10 9 -11 8 -5 -6z"/>
<path d="M3097 983 c-3 -5 4 -15 16 -23 21 -12 21 -12 7 6 -8 10 -15 20 -16
22 -1 2 -4 -1 -7 -5z"/>
<path d="M1903 965 c0 -8 4 -12 9 -9 5 3 6 10 3 15 -9 13 -12 11 -12 -6z"/>
<path d="M2376 962 c-3 -5 1 -9 9 -9 8 0 12 4 9 9 -3 4 -7 8 -9 8 -2 0 -6 -4
-9 -8z"/>
<path d="M1434 938 c3 -15 26 -23 26 -8 0 6 -4 9 -9 6 -5 -4 -12 -1 -14 4 -3
6 -4 5 -3 -2z"/>
<path d="M2740 942 c0 -6 5 -14 10 -17 6 -4 7 -11 4 -17 -4 -7 -2 -8 5 -4 9 6
9 12 -1 24 -7 10 -14 19 -15 21 -2 2 -3 -1 -3 -7z"/>
<path d="M2226 932 c-3 -5 1 -9 9 -9 8 0 12 4 9 9 -3 4 -7 8 -9 8 -2 0 -6 -4
-9 -8z"/>
<path d="M2178 923 c7 -3 16 -2 19 1 4 3 -2 6 -13 5 -11 0 -14 -3 -6 -6z"/>
<path d="M2631 904 c0 -11 3 -14 6 -6 3 7 2 16 -1 19 -3 4 -6 -2 -5 -13z"/>
<path d="M2850 910 c-9 -6 -10 -10 -3 -10 6 0 15 5 18 10 8 12 4 12 -15 0z"/>
<path d="M1415 900 c-3 -6 1 -7 9 -4 18 7 21 14 7 14 -6 0 -13 -4 -16 -10z"/>
<path d="M1560 893 c0 -6 8 -17 18 -24 16 -13 16 -13 2 6 -8 11 -16 22 -17 24
-2 2 -3 0 -3 -6z"/>
<path d="M1940 880 c-9 -6 -10 -10 -3 -10 6 0 13 -7 15 -15 2 -9 8 -11 15 -7
10 7 10 12 0 25 -8 12 -16 14 -27 7z"/>
<path d="M2405 880 c3 -5 8 -10 11 -10 2 0 4 5 4 10 0 6 -5 10 -11 10 -5 0 -7
-4 -4 -10z"/>
<path d="M2794 873 c2 -10 -2 -25 -8 -33 -9 -13 -9 -13 6 -2 16 12 18 35 6 48
-4 3 -5 -2 -4 -13z"/>
<path d="M1330 874 c0 -2 9 -8 20 -14 15 -8 18 -8 14 3 -4 11 -34 21 -34 11z"/>
<path d="M2020 871 c0 -6 5 -13 12 -17 6 -4 8 -3 4 4 -3 6 2 13 11 15 14 4 13
5 -4 6 -13 0 -23 -3 -23 -8z"/>
<path d="M2266 871 c-4 -5 -2 -12 3 -15 5 -4 12 -2 15 3 4 5 2 12 -3 15 -5 4
-12 2 -15 -3z"/>
<path d="M2480 868 c0 -4 4 -8 9 -8 6 0 12 4 15 8 3 5 -1 9 -9 9 -8 0 -15 -4
-15 -9z"/>
<path d="M2390 866 c0 -2 7 -9 15 -16 9 -7 15 -8 15 -2 0 5 -7 12 -15 16 -8 3
-15 4 -15 2z"/>
<path d="M3059 865 c-1 -3 -2 -10 -3 -16 0 -6 -9 -16 -18 -23 -20 -15 -24 -36
-6 -36 6 0 8 3 5 7 -4 3 1 15 10 25 16 18 27 48 17 48 -2 0 -5 -2 -5 -5z"/>
<path d="M2098 853 c7 -3 16 -2 19 1 4 3 -2 6 -13 5 -11 0 -14 -3 -6 -6z"/>
<path d="M1615 839 c-4 -6 -5 -12 -2 -15 2 -3 7 2 10 11 7 17 1 20 -8 4z"/>
<path d="M2093 833 c4 -3 1 -13 -6 -22 -11 -14 -10 -14 5 -2 16 12 16 31 1 31
-4 0 -3 -3 0 -7z"/>
<path d="M1881 814 c0 -11 3 -14 6 -6 3 7 2 16 -1 19 -3 4 -6 -2 -5 -13z"/>
<path d="M2690 822 c0 -4 10 -9 22 -9 18 -2 20 0 8 7 -18 12 -30 13 -30 2z"/>
<path d="M2860 810 c8 -5 20 -10 25 -10 6 0 3 5 -5 10 -8 5 -19 10 -25 10 -5
0 -3 -5 5 -10z"/>
<path d="M2375 789 c-4 -6 -5 -12 -2 -15 2 -3 7 2 10 11 7 17 1 20 -8 4z"/>
<path d="M2423 777 c-1 -11 -1 -18 0 -16 2 2 8 11 15 20 9 12 9 16 -1 16 -7 0
-14 -9 -14 -20z"/>
<path d="M2906 767 c3 -10 9 -15 12 -12 3 3 0 11 -7 18 -10 9 -11 8 -5 -6z"/>
<path d="M1570 759 c0 -4 11 -6 25 -6 13 0 22 3 20 8 -6 9 -45 8 -45 -2z"/>
<path d="M2587 759 c7 -7 15 -10 18 -7 3 3 -2 9 -12 12 -14 6 -15 5 -6 -5z"/>
<path d="M3055 1260 c3 -5 11 -10 16 -10 6 0 7 5 4 10 -3 6 -11 10 -16 10 -6
0 -7 -4 -4 -10z"/>
</g>
</svg>
